<svg xmlns="http://www.w3.org/2000/svg" width="1400" height="760" viewBox="0 0 1400 760" role="img" aria-labelledby="title desc">
<title id="title">Smart field suggestions</title>
<desc id="desc">A stylized TinySigner editor showing dashed smart suggestions for signature, date, and checkbox fields.</desc>
<defs>
  <linearGradient id="bg" x1="0" x2="1" y1="0" y2="1"><stop offset="0" stop-color="#071b2a"/><stop offset="1" stop-color="#124f5d"/></linearGradient>
  <linearGradient id="panel" x1="0" x2="1" y1="0" y2="1"><stop offset="0" stop-color="#24333c"/><stop offset="1" stop-color="#182831"/></linearGradient>
  <filter id="shadow" x="-20%" y="-20%" width="140%" height="150%"><feDropShadow dx="0" dy="26" stdDeviation="24" flood-color="#00151f" flood-opacity="0.36"/></filter>
</defs>
<rect width="1400" height="760" fill="url(#bg)"/>
<circle cx="1170" cy="120" r="260" fill="#18c8d0" opacity="0.11"/>
<circle cx="170" cy="690" r="330" fill="#2b83ff" opacity="0.10"/>
<g filter="url(#shadow)">
  <rect x="84" y="70" width="1232" height="620" rx="30" fill="#14212a"/>
  <rect x="84" y="70" width="1232" height="52" rx="30" fill="#21323b"/>
  <circle cx="122" cy="96" r="7" fill="#ff6860"/><circle cx="148" cy="96" r="7" fill="#ffbd4a"/><circle cx="174" cy="96" r="7" fill="#31c85d"/>
  <rect x="112" y="148" width="120" height="512" rx="18" fill="#25343d"/>
  <rect x="138" y="178" width="68" height="96" rx="8" fill="#fffdf8"/><rect x="151" y="199" width="42" height="7" rx="3" fill="#b4c2c8"/><rect x="151" y="221" width="38" height="7" rx="3" fill="#d2d9dc"/>
  <rect x="138" y="296" width="68" height="96" rx="8" fill="#fffdf8"/><rect x="151" y="334" width="42" height="7" rx="3" fill="#b4c2c8"/>
  <rect x="258" y="148" width="690" height="512" rx="16" fill="#0d1720"/>
  <rect x="320" y="168" width="568" height="472" rx="8" fill="#fffdf8"/>
  <text x="372" y="226" font-family="Georgia, serif" font-size="29" fill="#122836" font-weight="700">Agreement</text>
  <rect x="372" y="270" width="420" height="9" rx="4" fill="#253943" opacity="0.18"/>
  <rect x="372" y="300" width="382" height="9" rx="4" fill="#253943" opacity="0.16"/>
  <rect x="372" y="330" width="448" height="9" rx="4" fill="#253943" opacity="0.16"/>
  <text x="372" y="408" font-family="Avenir Next, sans-serif" font-size="17" fill="#20323b" font-weight="700">Signature</text>
  <rect x="372" y="430" width="246" height="3" fill="#172936" opacity="0.58"/>
  <rect x="360" y="374" width="282" height="82" rx="10" fill="#1b99ff" opacity="0.08" stroke="#1b99ff" stroke-width="3" stroke-dasharray="12 8"/>
  <rect x="366" y="366" width="104" height="26" rx="13" fill="#ecfbff" stroke="#1b99ff"/><text x="382" y="384" font-family="Avenir Next, sans-serif" font-size="13" fill="#0a5f99" font-weight="700">Signature</text>
  <text x="674" y="408" font-family="Avenir Next, sans-serif" font-size="17" fill="#20323b" font-weight="700">Date</text>
  <rect x="674" y="430" width="154" height="3" fill="#172936" opacity="0.58"/>
  <rect x="662" y="398" width="184" height="48" rx="9" fill="#1b99ff" opacity="0.08" stroke="#1b99ff" stroke-width="3" stroke-dasharray="12 8"/>
  <rect x="670" y="389" width="68" height="24" rx="12" fill="#ecfbff" stroke="#1b99ff"/><text x="690" y="406" font-family="Avenir Next, sans-serif" font-size="13" fill="#0a5f99" font-weight="700">Date</text>
  <rect x="374" y="508" width="23" height="23" fill="none" stroke="#172936" stroke-width="2"/>
  <rect x="364" y="498" width="43" height="43" rx="8" fill="#1b99ff" opacity="0.08" stroke="#1b99ff" stroke-width="3" stroke-dasharray="8 6"/>
  <text x="418" y="526" font-family="Avenir Next, sans-serif" font-size="17" fill="#20323b">I agree to the local signing terms.</text>
  <rect x="972" y="148" width="316" height="512" rx="18" fill="url(#panel)"/>
  <text x="1004" y="202" font-family="Avenir Next, sans-serif" font-size="24" fill="#f4fbff" font-weight="700">Smart Suggestions</text>
  <text x="1004" y="236" font-family="Avenir Next, sans-serif" font-size="14" fill="#aebcc3">3 likely fields found locally.</text>
  <rect x="1004" y="268" width="252" height="42" rx="12" fill="#18c8d0"/>
  <text x="1032" y="295" font-family="Avenir Next, sans-serif" font-size="15" fill="#041014" font-weight="700">Accept 3 High Confidence</text>
  <g font-family="Avenir Next, sans-serif">
    <rect x="1004" y="340" width="252" height="64" rx="12" fill="#0d1720"/><text x="1032" y="366" font-size="16" fill="#ecfbff" font-weight="700">Signature</text><text x="1032" y="388" font-size="13" fill="#9fb0b8">Page 1 - High - Signature</text>
    <rect x="1004" y="420" width="252" height="64" rx="12" fill="#0d1720"/><text x="1032" y="446" font-size="16" fill="#ecfbff" font-weight="700">Date</text><text x="1032" y="468" font-size="13" fill="#9fb0b8">Page 1 - High - Date</text>
    <rect x="1004" y="500" width="252" height="64" rx="12" fill="#0d1720"/><text x="1032" y="526" font-size="16" fill="#ecfbff" font-weight="700">Checkbox</text><text x="1032" y="548" font-size="13" fill="#9fb0b8">Page 1 - High - checkbox</text>
  </g>
</g>
</svg>
